<svg width="24" height="26" viewBox="0 0 24 26" fill="none" xmlns="http://www.w3.org/2000/svg">
<path d="M20.9375 6.36111L19.7996 21.8759C19.7524 22.5206 19.4561 23.124 18.9702 23.5646C18.4843 24.0051 17.8451 24.25 17.1811 24.25H6.31887C5.65493 24.25 5.01565 24.0051 4.52979 23.5646C4.04392 23.124 3.74758 22.5206 3.70044 21.8759L2.5625 6.36111M9.125 11.4722V19.1389M14.375 11.4722V19.1389M15.6875 6.36111V2.52778C15.6875 2.18889 15.5492 1.86388 15.3031 1.62425C15.0569 1.38462 14.7231 1.25 14.375 1.25H9.125C8.7769 1.25 8.44306 1.38462 8.19692 1.62425C7.95078 1.86388 7.8125 2.18889 7.8125 2.52778V6.36111M1.25 6.36111H22.25" stroke="#A50000" stroke-width="2.5" stroke-linecap="round" stroke-linejoin="round"/>
</svg>
